<svg xmlns="http://www.w3.org/2000/svg" width="38.5" height="38" viewBox="0 0 38.5 38">
  <defs>
    <style>
      .cls-1 {
        fill: none;
        stroke: #fff;
        stroke-width: 3px;
        fill-rule: evenodd;
      }
    </style>
  </defs>
  <path class="cls-1" d="M285.047,1508.64a5.975,5.975,0,0,1,8.369,0,5.775,5.775,0,0,1,0,8.25,5.994,5.994,0,0,1-8.369,0A5.775,5.775,0,0,1,285.047,1508.64Zm16.739-16.51a5.994,5.994,0,0,1,8.369,0,5.787,5.787,0,0,1,0,8.26,5.994,5.994,0,0,1-8.369,0A5.785,5.785,0,0,1,301.786,1492.13Zm-10.1,24.04A5.918,5.918,0,1,1,297.6,1522,5.874,5.874,0,0,1,291.687,1516.17Zm0-23.34a5.918,5.918,0,1,1,5.917,5.84A5.874,5.874,0,0,1,291.687,1492.83Zm10.1,24.04a5.773,5.773,0,0,1,0-8.25,5.975,5.975,0,0,1,8.369,0,5.775,5.775,0,0,1,0,8.25A5.975,5.975,0,0,1,301.786,1516.87Zm-16.739-16.5a5.775,5.775,0,0,1,0-8.25,5.975,5.975,0,0,1,8.369,0,5.775,5.775,0,0,1,0,8.25A5.975,5.975,0,0,1,285.047,1500.37Zm24.381,9.95a5.831,5.831,0,1,1,5.918-5.83A5.875,5.875,0,0,1,309.428,1510.32Zm-23.672,0a5.831,5.831,0,1,1,5.918-5.83A5.875,5.875,0,0,1,285.756,1510.32Z" transform="translate(-278.344 -1485.5)"/>
</svg>
